<svg xmlns="http://www.w3.org/2000/svg" version="1.1" xmlns:xlink="http://www.w3.org/1999/xlink" xmlns:svgjs="http://svgjs.dev/svgjs" width="2000" height="1247" viewBox="0 0 2000 1247"><g transform="matrix(1,0,0,1,-1.2121212121212466,0.504858299595071)"><svg viewBox="0 0 396 247" data-background-color="#ffffff" preserveAspectRatio="xMidYMid meet" height="1247" width="2000" xmlns="http://www.w3.org/2000/svg" xmlns:xlink="http://www.w3.org/1999/xlink"><g id="tight-bounds" transform="matrix(1,0,0,1,0.2400000000000091,-0.09999999999999432)"><svg viewBox="0 0 395.52 247.2" height="247.2" width="395.52"><g><svg></svg></g><g><svg viewBox="0 0 395.52 247.2" height="247.2" width="395.52"><mask id="9d322572-3bf2-4c7a-b065-f680451fd4e6"><rect width="640" height="400" fill="white"></rect><g transform="matrix(1,0,0,1,132.6589756097561,37.08)"><svg viewBox="0 0 130.2020487804878 173.04" height="173.04" width="130.2020487804878"><g><svg viewBox="0 0 130.2020487804878 173.04" height="173.04" width="130.2020487804878"><g><svg viewBox="0 0 130.20204878048781 173.04000000000002" height="173.04" width="130.2020487804878"><g><svg viewBox="0 0 130.20204878048781 173.04000000000002" height="173.04000000000002" width="130.20204878048781"><g id="SvgjsG1253"><svg viewBox="0 0 130.20204878048781 173.04000000000002" height="173.04000000000002" width="130.20204878048781" id="SvgjsSvg1252"><g><svg viewBox="0 0 130.20204878048781 173.04000000000002" height="173.04000000000002" width="130.20204878048781"><g transform="matrix(1,0,0,1,0,0)"><svg width="130.20204878048781" viewBox="-1.6500000953674316 -37.5 31.850000381469727 42" height="173.04000000000002" data-palette-color="#ff4136"><path d="M13.55 0.5L13.55 0.5Q10.25 0.5 7.73-0.18 5.2-0.85 2.85-2.05L2.85-2.05 2.35-10.5 3.25-10.5 6.8-4.35Q8.15-3.25 9.73-2.65 11.3-2.05 12.95-2.05L12.95-2.05Q15.65-2.05 17.35-3.33 19.05-4.6 19.05-7.1L19.05-7.1Q19.05-8.8 18.28-9.9 17.5-11 15.7-11.98 13.9-12.95 10.75-14.35L10.75-14.35Q7.2-15.9 5.3-18.05 3.4-20.2 3.4-23.4L3.4-23.4Q3.4-25.4 4.42-27.23 5.45-29.05 7.18-30.48 8.9-31.9 11.03-32.7 13.15-33.5 15.4-33.5L15.4-33.5Q17.95-33.5 20.3-32.9 22.65-32.3 24.65-31.2L24.65-31.2 25.15-23.2 24.3-23.2 20.8-28.85Q19.5-29.85 18.28-30.38 17.05-30.9 15.5-30.9L15.5-30.9Q13.45-30.9 12.1-29.6 10.75-28.3 10.75-26.15L10.75-26.15Q10.75-24.1 12.23-22.78 13.7-21.45 17.35-19.8L17.35-19.8Q21.9-17.7 24.05-15.5 26.2-13.3 26.2-9.7L26.2-9.7Q26.2-6.5 24.35-4.2 22.5-1.9 19.6-0.7 16.7 0.5 13.55 0.5Z" opacity="1" transform="matrix(1,0,0,1,0,0)" fill="black" class="wordmark-text-0" id="SvgjsPath1251" stroke-width="7" stroke="black" stroke-linejoin="round"></path></svg></g></svg></g></svg></g></svg></g></svg></g></svg></g></svg></g></mask><g transform="matrix(1,0,0,1,132.6589756097561,37.08)"><svg viewBox="0 0 130.2020487804878 173.04" height="173.04" width="130.2020487804878"><g><svg viewBox="0 0 130.2020487804878 173.04" height="173.04" width="130.2020487804878"><g><svg viewBox="0 0 130.20204878048781 173.04000000000002" height="173.04" width="130.2020487804878"><g><svg viewBox="0 0 130.20204878048781 173.04000000000002" height="173.04000000000002" width="130.20204878048781"><g id="textblocktransform"><svg viewBox="0 0 130.20204878048781 173.04000000000002" height="173.04000000000002" width="130.20204878048781" id="textblock"><g><svg viewBox="0 0 130.20204878048781 173.04000000000002" height="173.04000000000002" width="130.20204878048781"><g transform="matrix(1,0,0,1,0,0)"><svg width="130.20204878048781" viewBox="-1.6500000953674316 -37.5 31.850000381469727 42" height="173.04000000000002" data-palette-color="#ff4136"><path d="M13.55 0.5L13.55 0.5Q10.25 0.5 7.73-0.18 5.2-0.85 2.85-2.05L2.85-2.05 2.35-10.5 3.25-10.5 6.8-4.35Q8.15-3.25 9.73-2.65 11.3-2.05 12.95-2.05L12.95-2.05Q15.65-2.05 17.35-3.33 19.05-4.6 19.05-7.1L19.05-7.1Q19.05-8.8 18.28-9.9 17.5-11 15.7-11.98 13.9-12.95 10.75-14.35L10.75-14.35Q7.2-15.9 5.3-18.05 3.4-20.2 3.4-23.4L3.4-23.4Q3.4-25.4 4.42-27.23 5.45-29.05 7.18-30.48 8.9-31.9 11.03-32.7 13.15-33.5 15.4-33.5L15.4-33.5Q17.95-33.5 20.3-32.9 22.65-32.3 24.65-31.2L24.65-31.2 25.15-23.2 24.3-23.2 20.8-28.85Q19.5-29.85 18.28-30.38 17.05-30.9 15.5-30.9L15.5-30.9Q13.45-30.9 12.1-29.6 10.75-28.3 10.75-26.15L10.75-26.15Q10.75-24.1 12.23-22.78 13.7-21.45 17.35-19.8L17.35-19.8Q21.9-17.7 24.05-15.5 26.2-13.3 26.2-9.7L26.2-9.7Q26.2-6.5 24.35-4.2 22.5-1.9 19.6-0.7 16.7 0.5 13.55 0.5Z" opacity="1" transform="matrix(1,0,0,1,0,0)" fill="#ff4136" class="wordmark-text-0" data-fill-palette-color="primary" id="text-0"></path></svg></g></svg></g></svg></g></svg></g></svg></g></svg></g></svg></g><g mask="url(#9d322572-3bf2-4c7a-b065-f680451fd4e6)"><g transform="matrix(3.890133862171542, 0, 0, 3.890133862171542, 75.22078334159643, 1)"><svg xmlns:dc="http://purl.org/dc/elements/1.1/" xmlns:cc="http://creativecommons.org/ns#" xmlns:rdf="http://www.w3.org/1999/02/22-rdf-syntax-ns#" xmlns:svg="http://www.w3.org/2000/svg" xmlns="http://www.w3.org/2000/svg" xmlns:sodipodi="http://sodipodi.sourceforge.net/DTD/sodipodi-0.dtd" xmlns:inkscape="http://www.inkscape.org/namespaces/inkscape" preserveAspectRatio="xMidYMid" viewBox="0 0 63 63.03125" version="1.1" x="0" y="0" height="63.03125" width="63" class="icon-none" data-fill-palette-color="accent" id="none"></svg></g></g></svg></g><defs></defs><mask id="19568f53-9a03-48bc-8d06-826d287c0370"><g id="SvgjsG1263"><svg viewBox="0 0 395.52 247.2" height="247.2" width="395.52"><g><svg></svg></g><g><svg viewBox="0 0 395.52 247.2" height="247.2" width="395.52"><mask id="SvgjsMask1262"><g transform="matrix(1,0,0,1,132.6589756097561,37.08)"><svg viewBox="0 0 130.2020487804878 173.04" height="173.04" width="130.2020487804878"><g><svg viewBox="0 0 130.2020487804878 173.04" height="173.04" width="130.2020487804878"><g><svg viewBox="0 0 130.20204878048781 173.04000000000002" height="173.04" width="130.2020487804878"><g><svg viewBox="0 0 130.20204878048781 173.04000000000002" height="173.04000000000002" width="130.20204878048781"><g id="SvgjsG1261"><svg viewBox="0 0 130.20204878048781 173.04000000000002" height="173.04000000000002" width="130.20204878048781" id="SvgjsSvg1260"><g><svg viewBox="0 0 130.20204878048781 173.04000000000002" height="173.04000000000002" width="130.20204878048781"><g transform="matrix(1,0,0,1,0,0)"><svg width="130.20204878048781" viewBox="-1.6500000953674316 -37.5 31.850000381469727 42" height="173.04000000000002" data-palette-color="#ff4136"></svg></g></svg></g></svg></g></svg></g></svg></g></svg></g></svg></g></mask><g transform="matrix(1,0,0,1,132.6589756097561,37.08)"><svg viewBox="0 0 130.2020487804878 173.04" height="173.04" width="130.2020487804878"><g><svg viewBox="0 0 130.2020487804878 173.04" height="173.04" width="130.2020487804878"><g><svg viewBox="0 0 130.20204878048781 173.04000000000002" height="173.04" width="130.2020487804878"><g><svg viewBox="0 0 130.20204878048781 173.04000000000002" height="173.04000000000002" width="130.20204878048781"><g id="SvgjsG1258"><svg viewBox="0 0 130.20204878048781 173.04000000000002" height="173.04000000000002" width="130.20204878048781" id="SvgjsSvg1257"><g><svg viewBox="0 0 130.20204878048781 173.04000000000002" height="173.04000000000002" width="130.20204878048781"><g transform="matrix(1,0,0,1,0,0)"><svg width="130.20204878048781" viewBox="-1.6500000953674316 -37.5 31.850000381469727 42" height="173.04000000000002" data-palette-color="#ff4136"></svg></g></svg></g></svg></g></svg></g></svg></g></svg></g></svg></g><g mask="url(#9d322572-3bf2-4c7a-b065-f680451fd4e6)"><g transform="matrix(3.890133862171542, 0, 0, 3.890133862171542, 75.22078334159643, 1)"><svg xmlns:dc="http://purl.org/dc/elements/1.1/" xmlns:cc="http://creativecommons.org/ns#" xmlns:rdf="http://www.w3.org/1999/02/22-rdf-syntax-ns#" xmlns:svg="http://www.w3.org/2000/svg" xmlns="http://www.w3.org/2000/svg" xmlns:sodipodi="http://sodipodi.sourceforge.net/DTD/sodipodi-0.dtd" xmlns:inkscape="http://www.inkscape.org/namespaces/inkscape" preserveAspectRatio="xMidYMid" viewBox="0 0 63 63.03125" version="1.1" x="0" y="0" height="63.03125" width="63" class="icon-none" data-fill-palette-color="accent" id="SvgjsSvg1255"><path d="M9.5 0C4.253 0 0 4.25 0 9.5L0 53.531C0 58.781 4.253 63.031 9.5 63.031L53.5 63.031C58.747 63.031 63 58.781 63 53.531L63 9.5C63 4.25 58.747 0 53.5 0L9.5 0zM10 3L17 3 17 60.031 10 60.031 10 3zM20 3L35 3 35 60.031 20 60.031 20 3zM38 3L53.5 3C57.09 3 60 5.908 60 9.5L60 53.531C60 57.123 57.09 60.031 53.5 60.031L38 60.031 38 3zM6.969 3.5C6.978 3.496 6.991 3.504 7 3.5L7 59.531C4.653 58.55 3 56.236 3 53.531L3 9.5C3 6.806 4.636 4.487 6.969 3.5z" fill="white" fill-rule="evenodd"></path></svg></g></g></svg></g><defs><mask></mask></defs></svg></g></mask><linearGradient x1="0" x2="1" y1="0.5" y2="0.5" id="49a5c1db-0105-4920-b7a9-ca715cb8a9c1"><stop stop-color="#ffa62e" offset="0"></stop><stop stop-color="#f71b3d" offset="1"></stop></linearGradient><rect width="395.5199890136719" height="247.1999969482422" fill="url(#49a5c1db-0105-4920-b7a9-ca715cb8a9c1)" mask="url(#19568f53-9a03-48bc-8d06-826d287c0370)" data-fill-palette-color="accent"></rect></svg><rect width="395.52" height="247.2" fill="none" stroke="none" visibility="hidden"></rect></g></svg></g></svg>