<svg xmlns="http://www.w3.org/2000/svg" version="1.1" xmlns:xlink="http://www.w3.org/1999/xlink" xmlns:svgjs="http://svgjs.dev/svgjs" width="1000" height="1125" viewBox="0 0 1000 1125"><g transform="matrix(1,0,0,1,1.7053025658242404e-13,0)"><svg viewBox="0 0 320 360" data-background-color="#ffffff" preserveAspectRatio="xMidYMid meet" height="1125" width="1000" xmlns="http://www.w3.org/2000/svg" xmlns:xlink="http://www.w3.org/1999/xlink"><g id="tight-bounds" transform="matrix(1,0,0,1,0,0)"><svg viewBox="0 0 320 360" height="360" width="320"><g><svg></svg></g><g><svg viewBox="0 0 320 360" height="360" width="320"><g><path xmlns="http://www.w3.org/2000/svg" d="M20.961 227.22l3.726 4.658-1.863-6.056c-0.466-2.795-3.726 0.466-1.863 1.398M25.153 224.425c1.397 2.329 2.795 4.658 2.795 6.987 0 3.261 2.795 4.658 5.123 5.589-3.261-3.726-5.124-13.974-7.918-12.576M204.017 26.929c7.918 0 15.371-0.932 23.756 0.931 20.495 5.124 37.729 15.371 49.374 29.811l32.606 52.169c1.397 13.042 4.192 27.482 3.726 43.319 3.261 0 2.795-4.658 6.521-5.59-3.726 9.316-5.59 20.961-6.521 34.469-2.329-7.453 0-18.632 0.466-24.687-3.261 5.124-5.124 1.397-5.124-0.932 0.466-3.726-1.397-3.261-2.795-4.658-5.124-4.658-8.384-9.782-12.11-17.7 2.329-6.055 2.795-14.905-4.658-19.563-2.329-1.397-5.124-3.726-6.521-7.453-1.863-5.124-5.124-11.179-4.193-19.097 0.466-2.329-6.987 5.124-11.179 1.863-18.166-12.576-36.332-27.016-58.224-39.127-11.645 0-20.029-4.192-24.221-9.316-3.726-4.658-0.932-10.713 4.658-11.179 3.261 0 6.987-0.932 9.782 0.932 0.466-1.863 2.329-4.192 4.657-4.192M157.904 16.215l0.932 0.466c4.658 0.932 6.987 7.453 12.11 5.124 0 3.261 0.466 6.521-0.466 8.85-1.397 3.726-5.59 3.726-8.85 3.726-31.208-1.863-49.374 11.179-68.471 22.358-5.124 3.261-10.713 5.59-14.906 9.782-20.029 18.632-41.921 35.866-47.045 70.335l-4.192 38.195c-0.466 4.192-5.124 8.384-4.192 13.508l3.26 22.824c-3.261-3.261-5.124 0.932-4.192 2.795 0.466 1.397 2.329 6.055 5.124 1.863 3.726 6.987 7.453 20.495 12.576 26.55 15.837 18.632 36.332 35.4 53.101 52.169 4.192-0.932 7.453-0.932 8.384-3.727 1.397 2.795-1.397 5.59-3.726 6.056 7.453 4.658 15.837 8.85 27.016 9.781 14.44 0.932 27.948 3.261 40.524 6.522 6.521-1.863 13.042-2.795 20.029-3.261 2.329 0 3.726-3.726 6.521-4.658l0.466-4.658c2.795 4.192 2.329-1.397 0.466-4.192 3.261 2.795 4.192 5.124 5.589 6.987 0-1.397 3.726-6.521 3.727-0.466l0.931-6.055c1.397-0.932 1.863 5.124 3.261 0.931 1.397-4.192 4.192-0.932 6.987-2.329-0.932 1.863-0.466 5.59 2.794 3.261l3.727-3.261c2.329 5.59 6.055 3.261 7.918 2.329 20.495-13.042 40.99-28.413 60.553-43.784l-0.466 6.055 2.329-7.453c2.329 2.329 4.192 0.466 5.124-0.931 2.795-4.658 6.521-9.316 12.577-13.508-7.453 20.029-16.303 35.866-27.482 48.908l-4.658 5.59c0 3.261-0.932 7.453-4.658 7.918-1.863 0.466-5.59-0.932-8.384 1.863-1.397 1.863 3.261 5.59-0.466 2.795-3.261-2.329-6.521 0-10.248 0.932-2.795 0.932 1.863 3.726 2.795 5.589 0.932 1.863 1.863 3.726 1.398 6.056l-5.124-5.59c-6.055 3.261-9.782 9.316-14.906 13.974-2.329 1.863-1.397 5.124-1.397 7.918-3.261 0-6.987-0.932-8.85 0.932-1.397 1.863-0.932 4.658-0.932 7.453-4.658-0.466-5.124-7.453-9.315-6.056-4.192 0.932-8.85 1.397-12.577 3.727 2.795 5.59-4.658 2.329-3.726 3.26-6.987-4.192-13.042-7.453-20.495-4.658-15.837-5.124-35.4-2.795-49.84-0.931 0-2.329 0.466-4.658-0.466-5.124-0.932 2.329-3.726 1.397-3.26 1.397-8.85-6.055-17.7-9.782-27.016-14.905-8.384 0.932-16.303-3.261-18.632-5.59-6.521-6.055-13.974-2.795-20.029-4.192-13.042-3.261-17.7-16.769-19.098-26.084-0.932-4.658-4.658-6.521-6.055-6.056-6.055-19.563-15.371-37.263-22.824-55.429-1.863-4.658-1.397-9.316-1.397-14.44 2.329 0.932 4.658 0.466 4.192-2.794-2.329-15.371-7.918-27.016-13.974-38.195 3.261-15.837 3.726-34.469 11.179-48.443 6.521-12.576 18.632-19.098 27.016-29.811 2.795-3.726 2.795-8.85 5.59-12.11 9.316-9.316 18.632-19.098 28.879-27.482 4.658-3.726 10.247 0 17.234-1.397 2.329-8.384 11.645-15.837 20.495-13.508 3.726 0.932 11.179-8.85 13.508-9.782 3.726-1.397 1.863 3.726 1.863 6.987 8.85-6.987 20.961-10.713 32.14-14.906" fill="#77d4fc" fill-rule="nonzero" stroke="none" stroke-width="1" stroke-linecap="butt" stroke-linejoin="miter" stroke-miterlimit="10" stroke-dasharray="" stroke-dashoffset="0" font-family="none" font-weight="none" font-size="none" text-anchor="none" style="mix-blend-mode: normal" data-fill-palette-color="tertiary"></path></g><g transform="matrix(1,0,0,1,104.20866638612316,90)"><svg viewBox="0 0 111.5826672277537 180" height="180" width="111.5826672277537"><g><svg viewBox="0 0 139.71804799210526 225.38669547346714" height="180" width="111.5826672277537"><g><svg viewBox="0 0 139.71804799210526 225.38669547346714" height="225.38669547346714" width="139.71804799210526"><g id="textblocktransform"><svg viewBox="0 0 139.71804799210526 225.38669547346714" height="225.38669547346714" width="139.71804799210526" id="textblock"><g><svg viewBox="0 0 139.71804799210526 178.88760000000002" height="178.88760000000002" width="139.71804799210526"><path d="M139.391 38.368C138.734 19.799 136.862 14.637 136.862 14.637 131.115-4.488 123.942-0.366 117.498 2.382 106.122 2.494 94.791 6.579 83.441 8.77 59.617 9.104 35.59 3.608 11.884 17.163 9.658 21.322-2.31 17.98 0.396 40.745 1.105 50.215 3.693 60.724 3.615 69.414 3.969 70.937 4.462 67.446 4.672 69.637 5.408 75.542 6.61 72.757 7.595 76.248 6.222 85.569 7.208 93.331 8.147 101.464 6.492 103.58 4.37 102.578 3.418 109.597 3.319 114.684 2.787 113.719 2.202 113.496 1.775 113.347 0.915 113.905 1.059 115.501 1.552 120.961-0.563 124.117 0.764 129.465-0.149 135.258 1.394 140.272 1.184 146.548 1.158 147.811 1.303 148.888 1.532 149.185 2.551 150.781 1.066 153.901 1.224 157.28 11.668 180.38 22.998 164.411 33.698 175.032 36.477 167.605 34.388 177.669 35.498 176.109 36.365 174.289 36.995 181.828 37.974 177.557 38.125 176.332 37.895 173.435 38.434 173.992 38.716 174.289 38.966 174.215 39.005 172.507 39.065 169.944 38.546 171.541 38.408 170.204 39.899 163.445 39.531 179.525 40.93 178.857 40.864 176.889 40.457 174.066 41.291 174.438 42.119 171.615 42.145 169.276 42.881 175.626 42.907 177 43.038 177.966 43.249 178.634 45.548 171.727 47.833 181.085 50.244 177.966 51.722 174.549 53.141 179.823 54.638 178.523 55.164 177.483 55.696 175.626 56.202 178.746 62.396 179.414 68.997 176.629 74.869 178.857 90.561 174.698 107.33 180.565 123.876 175.069 127.778 172.952 131.831 169.944 135.634 167.53 135.634 167.53 138.714 160.92 138.714 131.21S139.371 105.214 139.47 81.558C139.568 57.902 140.028 56.936 139.371 38.368Z" opacity="1" fill="#77d4fc" data-fill-palette-color="tertiary"></path><g transform="matrix(1,0,0,1,27.071999999999996,18.981962000000003)"><svg width="85.57404799210526" viewBox="3.8299999237060547 -35.84000015258789 22.540000915527344 37.11000061035156" height="140.923676" data-palette-color="#ffffff"><path d="M4.27-0.37L3.86-9.08Q3.86-9.11 3.85-9.13 3.83-9.16 3.83-9.18L3.83-9.18Q3.83-9.59 4.27-9.59L4.27-9.59Q4.49-9.59 4.76-9.38L4.76-9.38Q6.08-8.13 7.69-7.4 9.3-6.67 11.21-6.67L11.21-6.67Q11.72-6.67 12.38-6.77 13.04-6.88 13.62-7.14 14.21-7.4 14.61-7.81 15.01-8.23 15.01-8.86L15.01-8.86Q15.01-9.57 14.67-10.13 14.33-10.69 13.77-11.08L13.77-11.08Q13.55-11.23 13.11-11.57 12.67-11.91 12.11-12.35 11.55-12.79 10.94-13.29 10.33-13.79 9.78-14.25 9.23-14.7 8.79-15.06 8.35-15.43 8.13-15.63L8.13-15.63Q6.69-16.7 5.85-17.8 5-18.9 4.57-20.09 4.13-21.29 4-22.57 3.88-23.85 3.88-25.29L3.88-25.29Q3.88-27.44 4.91-29.37 5.93-31.3 7.8-32.73 9.67-34.16 12.28-35 14.89-35.84 18.09-35.84L18.09-35.84Q18.48-35.84 19.26-35.75 20.04-35.67 20.98-35.47 21.92-35.28 22.9-34.94 23.88-34.59 24.68-34.06L24.68-34.06Q24.95-33.86 25.11-33.67 25.27-33.47 25.32-33.06L25.32-33.06Q25.44-31.08 25.51-29.16 25.59-27.25 25.71-25.1L25.71-25.1Q25.71-24.68 25.54-24.55 25.37-24.41 25.1-24.41L25.1-24.41Q24.83-24.41 24.68-24.56L24.68-24.56Q23.97-25.27 23.22-25.95 22.46-26.64 21.63-27.16 20.8-27.69 19.86-28 18.92-28.32 17.82-28.32L17.82-28.32Q17.16-28.32 16.5-28.21 15.84-28.1 15.31-27.81 14.77-27.51 14.44-27 14.11-26.49 14.11-25.71L14.11-25.71Q14.11-24.88 14.32-24.27 14.53-23.66 15.36-23.12L15.36-23.12 21.22-19.14Q22.83-17.99 23.83-16.86 24.83-15.72 25.39-14.6 25.95-13.48 26.16-12.39 26.37-11.3 26.37-10.25L26.37-10.25Q26.37-8.54 25.81-7.03 25.24-5.52 24.27-4.24 23.29-2.95 21.98-1.94 20.68-0.93 19.19-0.21 17.7 0.51 16.1 0.89 14.5 1.27 12.96 1.27L12.96 1.27Q11.77 1.27 10.61 1.23 9.45 1.2 8.35 1.04 7.25 0.88 6.23 0.55 5.2 0.22 4.27-0.37L4.27-0.37Z" opacity="1" transform="matrix(1,0,0,1,0,0)" fill="#ffffff" class="wordmark-text-0" data-fill-palette-color="quaternary" id="text-0"></path></svg></g></svg></g><g transform="matrix(1,0,0,1,26.686147166492105,212.15629773537603)"><svg viewBox="0 0 86.34575365912104 13.230397738091128" height="13.230397738091128" width="86.34575365912104"><g transform="matrix(1,0,0,1,0,0)"><svg width="86.34575365912104" viewBox="0.17000001668930054 -40.599998474121094 354.16998291015625 54.269996643066406" height="13.230397738091128" data-palette-color="#4b91f1"><path d="M7.79-34.18L18.48-5.86 24.76-26.27 24.51-23.02 20.26-34.18 17.21-34.74 17.21-36.82 28.64-36.82 28.66-34.74 25.1-34.18 34.59-6.03Q35.89-9.5 37.01-13.04L37.01-13.04 41.41-27.2Q42.53-30.71 43.82-34.18L43.82-34.18 40.31-34.74 40.31-36.82 49.68-36.82 49.68-34.74 46.97-34.28 35.16 0 32.52 0 24.8-22.17 26-21.9 19.04 0 16.41 0 2.95-34.18 0.17-34.74 0.17-36.82 10.86-36.82 11.04-34.74 7.79-34.18ZM71.53-5.59L71.53-5.59 72.92-4Q69.04-0.51 65.4 0.37L65.4 0.37Q64.6 0.56 63.82 0.56L63.82 0.56Q58.44 0.56 55.08-2.83L55.08-2.83Q51.73-6.15 51.73-11.5L51.73-11.5Q51.73-16.82 54.88-20.61L54.88-20.61Q58.35-24.73 63.89-24.73L63.89-24.73Q67.72-24.73 70.36-21.97L70.36-21.97Q73.17-19.09 73.17-14.48L73.17-14.48 72.02-13.45 56.1-12.3Q56.15-7.86 58.98-5.2L58.98-5.2Q61.52-2.86 64.89-2.86 68.26-2.86 71.53-5.59ZM56.27-14.6L56.27-14.6 68.82-15.75Q68.65-19.8 65.7-21.31L65.7-21.31Q64.65-21.85 63.01-21.85 61.37-21.85 60.09-21.04 58.81-20.24 57.98-19.09L57.98-19.09Q56.39-16.92 56.27-14.6ZM79.15-3.17L79.15-36.21 75.97-36.82 75.97-38.79 83.12-40.6 83.12-21.56Q85.52-23.24 87.73-23.99 89.94-24.73 91.93-24.73 93.92-24.73 95.82-23.82 97.72-22.9 99.04-21.29L99.04-21.29Q101.8-17.92 101.8-12.67L101.8-12.67Q101.8-7.23 98.55-3.52L98.55-3.52Q95.04 0.56 89.03 0.56L89.03 0.56Q85.18 0.56 81.78-1.29L81.78-1.29Q80.27-2.1 79.15-3.17L79.15-3.17ZM90.18-21.56L90.18-21.56Q86.88-21.56 83.12-19.04L83.12-19.04 83.12-5.1Q85.22-2.29 89.79-2.29L89.79-2.29Q93.31-2.29 95.5-4.98L95.5-4.98Q97.55-7.47 97.55-11.21L97.55-11.21Q97.55-18.09 93.53-20.65L93.53-20.65Q92.13-21.56 90.18-21.56ZM127.92-2.64L127.92-34.18 124.14-34.74 124.14-36.82 139.81-36.82Q149.5-36.82 154.9-32.08L154.9-32.08Q160.17-27.42 160.17-19.31L160.17-19.31Q160.17-13.48 157.46-8.89L157.46-8.89Q154.97-4.66 150.55-2.29L150.55-2.29Q146.25 0 141.3 0L141.3 0 124.14 0 124.14-2.08 127.92-2.64ZM139.69-33.86L132.44-33.86 132.44-2.93 141.25-2.93Q147.38-2.93 151.41-6.79L151.41-6.79Q155.56-10.82 155.56-17.31L155.56-17.31Q155.56-29.74 146.87-32.81L146.87-32.81Q143.86-33.86 139.69-33.86L139.69-33.86ZM184.17-5.59L184.17-5.59 185.56-4Q181.68-0.51 178.04 0.37L178.04 0.37Q177.23 0.56 176.45 0.56L176.45 0.56Q171.08 0.56 167.71-2.83L167.71-2.83Q164.37-6.15 164.37-11.5L164.37-11.5Q164.37-16.82 167.52-20.61L167.52-20.61Q170.98-24.73 176.53-24.73L176.53-24.73Q180.36-24.73 183-21.97L183-21.97Q185.8-19.09 185.8-14.48L185.8-14.48 184.66-13.45 168.74-12.3Q168.79-7.86 171.62-5.2L171.62-5.2Q174.16-2.86 177.53-2.86 180.9-2.86 184.17-5.59ZM168.91-14.6L168.91-14.6 181.46-15.75Q181.29-19.8 178.33-21.31L178.33-21.31Q177.28-21.85 175.65-21.85 174.01-21.85 172.73-21.04 171.45-20.24 170.62-19.09L170.62-19.09Q169.03-16.92 168.91-14.6ZM210.73-21.56L201.67 0 198.28 0 189.12-21.56 186.92-22.12 186.92-24.15 196.42-24.15 196.42-22.12 193.61-21.56 200.89-3.96 207.75-21.68 204.99-22.12 204.99-24.15 212.92-24.15 212.92-22.12 210.73-21.56ZM234.19-5.59L234.19-5.59 235.58-4Q231.7-0.51 228.06 0.37L228.06 0.37Q227.25 0.56 226.47 0.56L226.47 0.56Q221.1 0.56 217.73-2.83L217.73-2.83Q214.39-6.15 214.39-11.5L214.39-11.5Q214.39-16.82 217.54-20.61L217.54-20.61Q221-24.73 226.55-24.73L226.55-24.73Q230.38-24.73 233.01-21.97L233.01-21.97Q235.82-19.09 235.82-14.48L235.82-14.48 234.67-13.45 218.76-12.3Q218.81-7.86 221.64-5.2L221.64-5.2Q224.18-2.86 227.55-2.86 230.92-2.86 234.19-5.59ZM218.93-14.6L218.93-14.6 231.48-15.75Q231.31-19.8 228.35-21.31L228.35-21.31Q227.3-21.85 225.67-21.85 224.03-21.85 222.75-21.04 221.47-20.24 220.64-19.09L220.64-19.09Q219.05-16.92 218.93-14.6ZM245.85-40.6L245.85-2.59 248.98-2.03 248.98 0 238.73 0 238.73-2.03 241.9-2.59 241.9-36.21 238.73-36.82 238.73-38.79 245.85-40.6ZM252.66-11.87L252.66-11.87Q252.66-14.67 253.63-17.09 254.59-19.51 256.25-21.19L256.25-21.19Q259.67-24.73 264.67-24.73L264.67-24.73Q270.49-24.73 273.76-21.29L273.76-21.29Q276.86-17.99 276.86-12.67L276.86-12.67Q276.86-6.74 273.34-3.03L273.34-3.03Q269.92 0.56 264.89 0.56L264.89 0.56Q259.16 0.56 255.81-2.98L255.81-2.98Q252.66-6.3 252.66-11.87ZM258.91-19.15Q257.94-17.9 257.44-16.21 256.94-14.53 256.94-12.56 256.94-10.6 257.39-8.73 257.84-6.86 258.79-5.42L258.79-5.42Q260.89-2.29 264.85-2.29L264.85-2.29Q268.56-2.29 270.61-4.74L270.61-4.74Q272.63-7.13 272.63-11.21L272.63-11.21Q272.63-18.43 268.51-20.92L268.51-20.92Q266.97-21.85 264.87-21.85 262.77-21.85 261.33-21.13 259.89-20.41 258.91-19.15ZM293.48 0.56L293.48 0.56Q290.33 0.56 287.52-0.63L287.52-0.63 287.52 11.08 290.62 11.65 290.62 13.67 280.37 13.67 280.37 11.65 283.54 11.08 283.54-20.53 280.37-21.12 280.37-23.1 287.52-24.73 287.52-21.51Q291.8-24.73 295.97-24.73L295.97-24.73Q300.44-24.73 303.3-21.44L303.3-21.44Q306.2-18.09 306.2-12.67L306.2-12.67Q306.2-7.28 302.98-3.54L302.98-3.54Q299.46 0.56 293.48 0.56ZM287.52-19.04L287.52-19.04 287.52-5.1Q289.62-2.29 294.19-2.29L294.19-2.29Q297.7-2.29 299.9-5.08L299.9-5.08Q301.95-7.64 301.95-11.25L301.95-11.25Q301.95-15.72 300.1-18.51L300.1-18.51Q298.1-21.56 294.65-21.56 291.21-21.56 287.52-19.04ZM330.03-5.59L330.03-5.59 331.42-4Q327.54-0.51 323.9 0.37L323.9 0.37Q323.09 0.56 322.31 0.56L322.31 0.56Q316.94 0.56 313.57-2.83L313.57-2.83Q310.23-6.15 310.23-11.5L310.23-11.5Q310.23-16.82 313.38-20.61L313.38-20.61Q316.84-24.73 322.38-24.73L322.38-24.73Q326.22-24.73 328.85-21.97L328.85-21.97Q331.66-19.09 331.66-14.48L331.66-14.48 330.51-13.45 314.6-12.3Q314.65-7.86 317.48-5.2L317.48-5.2Q320.02-2.86 323.39-2.86 326.75-2.86 330.03-5.59ZM314.77-14.6L314.77-14.6 327.32-15.75Q327.15-19.8 324.19-21.31L324.19-21.31Q323.14-21.85 321.51-21.85 319.87-21.85 318.59-21.04 317.31-20.24 316.48-19.09L316.48-19.09Q314.89-16.92 314.77-14.6ZM337.67-2.59L337.67-20.36 334.54-20.92 334.54-22.95 341.62-24.73 341.62-18.51Q347.24-24.73 350.07-24.73L350.07-24.73Q352.39-24.73 354.34-22.88L354.34-22.88 353.07-18.92 351.92-18.92Q351.92-20.12 350.09-20.7L350.09-20.7Q349.58-20.85 349.07-20.85L349.07-20.85Q346.48-20.85 341.62-15.65L341.62-15.65 341.62-2.59 346.45-2.03 346.45 0 334.54 0 334.54-2.03 337.67-2.59Z" opacity="1" transform="matrix(1,0,0,1,0,0)" fill="#4b91f1" class="slogan-text-1" data-fill-palette-color="secondary" id="text-1"></path></svg></g></svg></g></svg></g></svg></g><g></g></svg></g></svg></g></svg></g><defs></defs></svg><rect width="320" height="360" fill="none" stroke="none" visibility="hidden"></rect></g></svg></g></svg>